<svg xmlns="http://www.w3.org/2000/svg" width="331.5508117675781" height="346.55511474609375" viewBox="-112.3843002319336 -130.9815673828125 331.5508117675781 346.55511474609375"><title>Neo4j Graph Visualization</title><desc>Created using Neo4j (http://www.neo4j.com/)</desc><g class="layer relationships"><g class="relationship" transform="translate(54.87138722577508 43.06583045075803) rotate(452.5764005346559)"><path class="outline" fill="#A5ABB6" stroke="none" d="M 25 0.5 L 45.545209247374004 0.5 L 45.545209247374004 -0.5 L 25 -0.5 Z M 91.107709247374 0.5 L 111.65291849474801 0.5 L 111.65291849474801 3.5 L 118.65291849474801 0 L 111.65291849474801 -3.5 L 111.65291849474801 -0.5 L 91.107709247374 -0.5 Z"/><text text-anchor="middle" pointer-events="none" font-size="8px" fill="#000000" x="68.326459247374" y="3" transform="rotate(180 68.326459247374 0)" font-family="sans-serif">ACTED_IN</text></g><g class="relationship" transform="translate(54.87138722577508 43.06583045075803) rotate(340.24318026793594)"><path class="outline" fill="#A5ABB6" stroke="none" d="M 25 0.5 L 45.597379988276515 0.5 L 45.597379988276515 -0.5 L 25 -0.5 Z M 91.15987998827651 0.5 L 111.75725997655303 0.5 L 111.75725997655303 3.5 L 118.75725997655303 0 L 111.75725997655303 -3.5 L 111.75725997655303 -0.5 L 91.15987998827651 -0.5 Z"/><text text-anchor="middle" pointer-events="none" font-size="8px" fill="#000000" x="68.37862998827651" y="3" font-family="sans-serif">ACTED_IN</text></g><g class="relationship" transform="translate(54.87138722577508 43.06583045075803) rotate(273.43464007295927)"><path class="outline" fill="#A5ABB6" stroke="none" d="M 25 0.5 L 46.372946651467075 0.5 L 46.372946651467075 -0.5 L 25 -0.5 Z M 91.93544665146707 0.5 L 113.30839330293415 0.5 L 113.30839330293415 3.5 L 120.30839330293415 0 L 113.30839330293415 -3.5 L 113.30839330293415 -0.5 L 91.93544665146707 -0.5 Z"/><text text-anchor="middle" pointer-events="none" font-size="8px" fill="#000000" x="69.15419665146707" y="3" font-family="sans-serif">ACTED_IN</text></g><g class="relationship" transform="translate(54.87138722577508 43.06583045075803) rotate(218.07741089850515)"><path class="outline" fill="#A5ABB6" stroke="none" d="M 25 0.5 L 46.6769477693353 0.5 L 46.6769477693353 -0.5 L 25 -0.5 Z M 92.2394477693353 0.5 L 113.9163955386706 0.5 L 113.9163955386706 3.5 L 120.9163955386706 0 L 113.9163955386706 -3.5 L 113.9163955386706 -0.5 L 92.2394477693353 -0.5 Z"/><text text-anchor="middle" pointer-events="none" font-size="8px" fill="#000000" x="69.4581977693353" y="3" transform="rotate(180 69.4581977693353 0)" font-family="sans-serif">ACTED_IN</text></g><g class="relationship" transform="translate(54.87138722577508 43.06583045075803) rotate(522.1387452355704)"><path class="outline" fill="#A5ABB6" stroke="none" d="M 25 0.5 L 46.34713446668418 0.5 L 46.34713446668418 -0.5 L 25 -0.5 Z M 91.90963446668418 0.5 L 113.25676893336836 0.5 L 113.25676893336836 3.5 L 120.25676893336836 0 L 113.25676893336836 -3.5 L 113.25676893336836 -0.5 L 91.90963446668418 -0.5 Z"/><text text-anchor="middle" pointer-events="none" font-size="8px" fill="#000000" x="69.12838446668418" y="3" transform="rotate(180 69.12838446668418 0)" font-family="sans-serif">ACTED_IN</text></g></g><g class="layer nodes"><g class="node" aria-label="graph-node105" transform="translate(48.41397019686988,186.5735401996545)"><circle class="outline" cx="0" cy="0" r="25" fill="#F79767" stroke="#f36924" stroke-width="2px"/><text class="caption" text-anchor="middle" pointer-events="none" x="0" y="0" font-size="10px" fill="#FFFFFF" font-family="sans-serif"> Cloud</text><text class="caption" text-anchor="middle" pointer-events="none" x="0" y="10" font-size="10px" fill="#FFFFFF" font-family="sans-serif"> Atlas</text></g><g class="node" aria-label="graph-node4" transform="translate(54.87138722577508,43.06583045075803)"><circle class="outline" cx="0" cy="0" r="25" fill="#C990C0" stroke="#b261a5" stroke-width="2px"/><text class="caption" text-anchor="middle" pointer-events="none" x="0" y="0" font-size="10px" fill="#FFFFFF" font-family="sans-serif"> Hugo</text><text class="caption" text-anchor="middle" pointer-events="none" x="0" y="10" font-size="10px" fill="#FFFFFF" font-family="sans-serif"> Weavi…</text></g><g class="node" aria-label="graph-node116" transform="translate(190.16648929561842,-5.5282551140196725)"><circle class="outline" cx="0" cy="0" r="25" fill="#F79767" stroke="#f36924" stroke-width="2px"/><text class="caption" text-anchor="middle" pointer-events="none" x="0" y="0" font-size="10px" fill="#FFFFFF" font-family="sans-serif"> V for</text><text class="caption" text-anchor="middle" pointer-events="none" x="0" y="10" font-size="10px" fill="#FFFFFF" font-family="sans-serif"> Vende…</text></g><g class="node" aria-label="graph-node10" transform="translate(63.57679590122672,-101.98155844016122)"><circle class="outline" cx="0" cy="0" r="25" fill="#F79767" stroke="#f36924" stroke-width="2px"/><text class="caption" text-anchor="middle" pointer-events="none" x="0" y="-5" font-size="10px" fill="#FFFFFF" font-family="sans-serif"> The</text><text class="caption" text-anchor="middle" pointer-events="none" x="0" y="5" font-size="10px" fill="#FFFFFF" font-family="sans-serif"> Matrix</text><text class="caption" text-anchor="middle" pointer-events="none" x="0" y="15" font-size="10px" fill="#FFFFFF" font-family="sans-serif"> Rev…</text></g><g class="node" aria-label="graph-node9" transform="translate(-59.99082271006243,-46.92454245464425)"><circle class="outline" cx="0" cy="0" r="25" fill="#F79767" stroke="#f36924" stroke-width="2px"/><text class="caption" text-anchor="middle" pointer-events="none" x="0" y="-5" font-size="10px" fill="#FFFFFF" font-family="sans-serif"> The</text><text class="caption" text-anchor="middle" pointer-events="none" x="0" y="5" font-size="10px" fill="#FFFFFF" font-family="sans-serif"> Matrix</text><text class="caption" text-anchor="middle" pointer-events="none" x="0" y="15" font-size="10px" fill="#FFFFFF" font-family="sans-serif"> Rel…</text></g><g class="node" aria-label="graph-node0" transform="translate(-83.3843004099925,87.61797694588249)"><circle class="outline" cx="0" cy="0" r="25" fill="#F79767" stroke="#f36924" stroke-width="2px"/><text class="caption" text-anchor="middle" pointer-events="none" x="0" y="0" font-size="10px" fill="#FFFFFF" font-family="sans-serif"> The</text><text class="caption" text-anchor="middle" pointer-events="none" x="0" y="10" font-size="10px" fill="#FFFFFF" font-family="sans-serif"> Matrix</text></g></g></svg>