<svg xmlns="http://www.w3.org/2000/svg" width="625.9351196289062" height="764.7730102539062" viewBox="-157.68968200683594 -547.52880859375 625.9351196289062 764.7730102539062"><title>Neo4j Graph Visualization</title><desc>Created using Neo4j (http://www.neo4j.com/)</desc><g class="layer relationships"><g class="relationship" transform="translate(56.523977695072595 20.79486955585893) rotate(276.3386141622284)"><path class="outline" fill="#A5ABB6" stroke="none" d="M 25 0.5 L 77.22944526714777 0.5 L 77.22944526714777 -0.5 L 25 -0.5 Z M 111.67475776714777 0.5 L 163.90420303429553 0.5 L 163.90420303429553 3.5 L 170.90420303429553 0 L 163.90420303429553 -3.5 L 163.90420303429553 -0.5 L 111.67475776714777 -0.5 Z"/><text text-anchor="middle" pointer-events="none" font-size="8px" fill="#000000" x="94.45210151714777" y="3" font-family="sans-serif">ORIGIN</text></g><g class="relationship" transform="translate(56.523977695072595 20.79486955585893) rotate(471.2492750196135)"><path class="outline" fill="#A5ABB6" stroke="none" d="M 25 0.5 L 54.22877941961629 0.5 L 54.22877941961629 -0.5 L 25 -0.5 Z M 113.41627941961629 0.5 L 142.64505883923258 0.5 L 142.64505883923258 3.5 L 149.64505883923258 0 L 142.64505883923258 -3.5 L 142.64505883923258 -0.5 L 113.41627941961629 -0.5 Z"/><text text-anchor="middle" pointer-events="none" font-size="8px" fill="#000000" x="83.82252941961629" y="3" transform="rotate(180 83.82252941961629 0)" font-family="sans-serif">DESTINATION</text></g><g class="relationship" transform="translate(-122.75458047222598 -168.5744118626701) rotate(358.4782341096741)"><path class="outline" fill="#A5ABB6" stroke="none" d="M 25 0.5 L 79.76638398467121 0.5 L 79.76638398467121 -0.5 L 25 -0.5 Z M 114.21169648467121 0.5 L 168.97808046934242 0.5 L 168.97808046934242 3.5 L 175.97808046934242 0 L 168.97808046934242 -3.5 L 168.97808046934242 -0.5 L 114.21169648467121 -0.5 Z"/><text text-anchor="middle" pointer-events="none" font-size="8px" fill="#000000" x="96.98904023467121" y="3" font-family="sans-serif">ORIGIN</text></g><g class="relationship" transform="translate(-122.75458047222598 -168.5744118626701) rotate(386.8476999737727)"><path class="outline" fill="#A5ABB6" stroke="none" d="M 25 0.5 L 65.57721452142 0.5 L 65.57721452142 -0.5 L 25 -0.5 Z M 124.76471452142 0.5 L 165.34192904284 0.5 L 165.34192904284 3.5 L 172.34192904284 0 L 165.34192904284 -3.5 L 165.34192904284 -0.5 L 124.76471452142 -0.5 Z"/><text text-anchor="middle" pointer-events="none" font-size="8px" fill="#000000" x="95.17096452142" y="3" font-family="sans-serif">DESTINATION</text></g><g class="relationship" transform="translate(142.6336078987896 -264.05138966487016) rotate(485.5778603642376)"><path class="outline" fill="#A5ABB6" stroke="none" d="M 25 0.5 L 34.691595089755495 0.5 L 34.691595089755495 -0.5 L 25 -0.5 Z M 69.1369075897555 0.5 L 78.82850267951099 0.5 L 78.82850267951099 3.5 L 85.82850267951099 0 L 78.82850267951099 -3.5 L 78.82850267951099 -0.5 L 69.1369075897555 -0.5 Z"/><text text-anchor="middle" pointer-events="none" font-size="8px" fill="#000000" x="51.914251339755495" y="3" transform="rotate(180 51.914251339755495 0)" font-family="sans-serif">ORIGIN</text></g><g class="relationship" transform="translate(142.6336078987896 -264.05138966487016) rotate(475.8196916508332)"><path class="outline" fill="#A5ABB6" stroke="none" d="M 25 0.5 L 69.4428885921103 0.5 L 69.4428885921103 -0.5 L 25 -0.5 Z M 128.6303885921103 0.5 L 173.0732771842206 0.5 L 173.0732771842206 3.5 L 180.0732771842206 0 L 173.0732771842206 -3.5 L 173.0732771842206 -0.5 L 128.6303885921103 -0.5 Z"/><text text-anchor="middle" pointer-events="none" font-size="8px" fill="#000000" x="99.0366385921103" y="3" transform="rotate(180 99.0366385921103 0)" font-family="sans-serif">DESTINATION</text></g><g class="relationship" transform="translate(227.52699922671945 15.04210942994731) rotate(231.67243988135345)"><path class="outline" fill="#A5ABB6" stroke="none" d="M 25 0.5 L 99.71016572785105 0.5 L 99.71016572785105 -0.5 L 25 -0.5 Z M 134.15547822785106 0.5 L 208.8656439557021 0.5 L 208.8656439557021 3.5 L 215.8656439557021 0 L 208.8656439557021 -3.5 L 208.8656439557021 -0.5 L 134.15547822785106 -0.5 Z"/><text text-anchor="middle" pointer-events="none" font-size="8px" fill="#000000" x="116.93282197785105" y="3" transform="rotate(180 116.93282197785105 0)" font-family="sans-serif">ORIGIN</text></g><g class="relationship" transform="translate(227.52699922671945 15.04210942994731) rotate(444.5434851653729)"><path class="outline" fill="#A5ABB6" stroke="none" d="M 25 0.5 L 53.90149867966922 0.5 L 53.90149867966922 -0.5 L 25 -0.5 Z M 113.08899867966922 0.5 L 141.99049735933843 0.5 L 141.99049735933843 3.5 L 148.99049735933843 0 L 141.99049735933843 -3.5 L 141.99049735933843 -0.5 L 113.08899867966922 -0.5 Z"/><text text-anchor="middle" pointer-events="none" font-size="8px" fill="#000000" x="83.49524867966922" y="3" font-family="sans-serif">DESTINATION</text></g><g class="relationship" transform="translate(193.6999661250738 -179.4308938584696) rotate(537.2653219173395)"><path class="outline" fill="#A5ABB6" stroke="none" d="M 25 0.5 L 37.11688720888142 0.5 L 37.11688720888142 -0.5 L 25 -0.5 Z M 71.56219970888142 0.5 L 83.67908691776285 0.5 L 83.67908691776285 3.5 L 90.67908691776285 0 L 83.67908691776285 -3.5 L 83.67908691776285 -0.5 L 71.56219970888142 -0.5 Z"/><text text-anchor="middle" pointer-events="none" font-size="8px" fill="#000000" x="54.33954345888142" y="3" transform="rotate(180 54.33954345888142 0)" font-family="sans-serif">ORIGIN</text></g><g class="relationship" transform="translate(193.6999661250738 -179.4308938584696) rotate(504.5419094416798)"><path class="outline" fill="#A5ABB6" stroke="none" d="M 25 0.5 L 53.08008143586662 0.5 L 53.08008143586662 -0.5 L 25 -0.5 Z M 112.26758143586662 0.5 L 140.34766287173323 0.5 L 140.34766287173323 3.5 L 147.34766287173323 0 L 140.34766287173323 -3.5 L 140.34766287173323 -0.5 L 112.26758143586662 -0.5 Z"/><text text-anchor="middle" pointer-events="none" font-size="8px" fill="#000000" x="82.67383143586662" y="3" transform="rotate(180 82.67383143586662 0)" font-family="sans-serif">DESTINATION</text></g><g class="relationship" transform="translate(135.46529038121162 -363.0645403611028) rotate(466.85663408549317)"><path class="outline" fill="#A5ABB6" stroke="none" d="M 25 0.5 L 78.09982267584614 0.5 L 78.09982267584614 -0.5 L 25 -0.5 Z M 112.54513517584614 0.5 L 165.64495785169228 0.5 L 165.64495785169228 3.5 L 172.64495785169228 0 L 165.64495785169228 -3.5 L 165.64495785169228 -0.5 L 112.54513517584614 -0.5 Z"/><text text-anchor="middle" pointer-events="none" font-size="8px" fill="#000000" x="95.32247892584614" y="3" transform="rotate(180 95.32247892584614 0)" font-family="sans-serif">ORIGIN</text></g><g class="relationship" transform="translate(135.46529038121162 -363.0645403611028) rotate(270.01715806194784)"><path class="outline" fill="#A5ABB6" stroke="none" d="M 25 0.5 L 44.63838158280629 0.5 L 44.63838158280629 -0.5 L 25 -0.5 Z M 103.82588158280629 0.5 L 123.46426316561258 0.5 L 123.46426316561258 3.5 L 130.46426316561258 0 L 123.46426316561258 -3.5 L 123.46426316561258 -0.5 L 103.82588158280629 -0.5 Z"/><text text-anchor="middle" pointer-events="none" font-size="8px" fill="#000000" x="74.23213158280629" y="3" font-family="sans-serif">DESTINATION</text></g><g class="relationship" transform="translate(220.1361265331907 -83.97642684832141) rotate(212.35101777710935)"><path class="outline" fill="#A5ABB6" stroke="none" d="M 25 0.5 L 63.31256740908384 0.5 L 63.31256740908384 -0.5 L 25 -0.5 Z M 97.75787990908384 0.5 L 136.07044731816768 0.5 L 136.07044731816768 3.5 L 143.07044731816768 0 L 136.07044731816768 -3.5 L 136.07044731816768 -0.5 L 97.75787990908384 -0.5 Z"/><text text-anchor="middle" pointer-events="none" font-size="8px" fill="#000000" x="80.53522365908384" y="3" transform="rotate(180 80.53522365908384 0)" font-family="sans-serif">ORIGIN</text></g><g class="relationship" transform="translate(220.1361265331907 -83.97642684832141) rotate(427.71976134881425)"><path class="outline" fill="#A5ABB6" stroke="none" d="M 25 0.5 L 64.30852148388918 0.5 L 64.30852148388918 -0.5 L 25 -0.5 Z M 123.49602148388918 0.5 L 162.80454296777836 0.5 L 162.80454296777836 3.5 L 169.80454296777836 0 L 162.80454296777836 -3.5 L 162.80454296777836 -0.5 L 123.49602148388918 -0.5 Z"/><text text-anchor="middle" pointer-events="none" font-size="8px" fill="#000000" x="93.90227148388918" y="3" font-family="sans-serif">DESTINATION</text></g><g class="relationship" transform="translate(-46.056647710446924 -320.44130023340927) rotate(409.71293261977735)"><path class="outline" fill="#A5ABB6" stroke="none" d="M 25 0.5 L 75.32272002167238 0.5 L 75.32272002167238 -0.5 L 25 -0.5 Z M 109.76803252167238 0.5 L 160.09075254334476 0.5 L 160.09075254334476 3.5 L 167.09075254334476 0 L 160.09075254334476 -3.5 L 160.09075254334476 -0.5 L 109.76803252167238 -0.5 Z"/><text text-anchor="middle" pointer-events="none" font-size="8px" fill="#000000" x="92.54537627167238" y="3" font-family="sans-serif">ORIGIN</text></g><g class="relationship" transform="translate(-46.056647710446924 -320.44130023340927) rotate(446.60037078192045)"><path class="outline" fill="#A5ABB6" stroke="none" d="M 25 0.5 L 64.99648135728854 0.5 L 64.99648135728854 -0.5 L 25 -0.5 Z M 124.18398135728854 0.5 L 164.1804627145771 0.5 L 164.1804627145771 3.5 L 171.1804627145771 0 L 164.1804627145771 -3.5 L 164.1804627145771 -0.5 L 124.18398135728854 -0.5 Z"/><text text-anchor="middle" pointer-events="none" font-size="8px" fill="#000000" x="94.59023135728854" y="3" font-family="sans-serif">DESTINATION</text></g><g class="relationship" transform="translate(36.803730326098325 -374.1692573712222) rotate(438.3335988208441)"><path class="outline" fill="#A5ABB6" stroke="none" d="M 25 0.5 L 81.51824662454999 0.5 L 81.51824662454999 -0.5 L 25 -0.5 Z M 115.96355912454999 0.5 L 172.48180574909998 0.5 L 172.48180574909998 3.5 L 179.48180574909998 0 L 172.48180574909998 -3.5 L 172.48180574909998 -0.5 L 115.96355912454999 -0.5 Z"/><text text-anchor="middle" pointer-events="none" font-size="8px" fill="#000000" x="98.74090287454999" y="3" font-family="sans-serif">ORIGIN</text></g><g class="relationship" transform="translate(36.803730326098325 -374.1692573712222) rotate(225.24960696430878)"><path class="outline" fill="#A5ABB6" stroke="none" d="M 25 0.5 L 47.31122384329527 0.5 L 47.31122384329527 -0.5 L 25 -0.5 Z M 106.49872384329527 0.5 L 128.80994768659053 0.5 L 128.80994768659053 3.5 L 135.80994768659053 0 L 128.80994768659053 -3.5 L 128.80994768659053 -0.5 L 106.49872384329527 -0.5 Z"/><text text-anchor="middle" pointer-events="none" font-size="8px" fill="#000000" x="76.90497384329527" y="3" transform="rotate(180 76.90497384329527 0)" font-family="sans-serif">DESTINATION</text></g><g class="relationship" transform="translate(42.264332976637405 -275.28446991912995) rotate(430.50486527996327)"><path class="outline" fill="#A5ABB6" stroke="none" d="M 25 0.5 L 33.04629836366267 0.5 L 33.04629836366267 -0.5 L 25 -0.5 Z M 67.49161086366267 0.5 L 75.53790922732534 0.5 L 75.53790922732534 3.5 L 82.53790922732534 0 L 75.53790922732534 -3.5 L 75.53790922732534 -0.5 L 67.49161086366267 -0.5 Z"/><text text-anchor="middle" pointer-events="none" font-size="8px" fill="#000000" x="50.26895461366267" y="3" font-family="sans-serif">ORIGIN</text></g><g class="relationship" transform="translate(42.264332976637405 -275.28446991912995) rotate(446.7700317423885)"><path class="outline" fill="#A5ABB6" stroke="none" d="M 25 0.5 L 64.9789027466383 0.5 L 64.9789027466383 -0.5 L 25 -0.5 Z M 124.1664027466383 0.5 L 164.1453054932766 0.5 L 164.1453054932766 3.5 L 171.1453054932766 0 L 164.1453054932766 -3.5 L 164.1453054932766 -0.5 L 124.1664027466383 -0.5 Z"/><text text-anchor="middle" pointer-events="none" font-size="8px" fill="#000000" x="94.5726527466383" y="3" font-family="sans-serif">DESTINATION</text></g><g class="relationship" transform="translate(313.09682971810315 -58.570179423190936) rotate(206.147882261503)"><path class="outline" fill="#A5ABB6" stroke="none" d="M 25 0.5 L 110.14221279616373 0.5 L 110.14221279616373 -0.5 L 25 -0.5 Z M 144.58752529616373 0.5 L 229.72973809232747 0.5 L 229.72973809232747 3.5 L 236.72973809232747 0 L 229.72973809232747 -3.5 L 229.72973809232747 -0.5 L 144.58752529616373 -0.5 Z"/><text text-anchor="middle" pointer-events="none" font-size="8px" fill="#000000" x="127.36486904616373" y="3" transform="rotate(180 127.36486904616373 0)" font-family="sans-serif">ORIGIN</text></g><g class="relationship" transform="translate(313.09682971810315 -58.570179423190936) rotate(457.0325735643043)"><path class="outline" fill="#A5ABB6" stroke="none" d="M 25 0.5 L 44.92031932026522 0.5 L 44.92031932026522 -0.5 L 25 -0.5 Z M 104.10781932026522 0.5 L 124.02813864053044 0.5 L 124.02813864053044 3.5 L 131.02813864053044 0 L 124.02813864053044 -3.5 L 124.02813864053044 -0.5 L 104.10781932026522 -0.5 Z"/><text text-anchor="middle" pointer-events="none" font-size="8px" fill="#000000" x="74.51406932026522" y="3" transform="rotate(180 74.51406932026522 0)" font-family="sans-serif">DESTINATION</text></g><g class="relationship" transform="translate(-128.6896886968179 -266.1163314992146) rotate(384.02599672957757)"><path class="outline" fill="#A5ABB6" stroke="none" d="M 25 0.5 L 92.50877535763922 0.5 L 92.50877535763922 -0.5 L 25 -0.5 Z M 126.95408785763922 0.5 L 194.46286321527845 0.5 L 194.46286321527845 3.5 L 201.46286321527845 0 L 194.46286321527845 -3.5 L 194.46286321527845 -0.5 L 126.95408785763922 -0.5 Z"/><text text-anchor="middle" pointer-events="none" font-size="8px" fill="#000000" x="109.73143160763922" y="3" font-family="sans-serif">ORIGIN</text></g><g class="relationship" transform="translate(-128.6896886968179 -266.1163314992146) rotate(416.33058104633676)"><path class="outline" fill="#A5ABB6" stroke="none" d="M 25 0.5 L 51.92291147757868 0.5 L 51.92291147757868 -0.5 L 25 -0.5 Z M 111.11041147757868 0.5 L 138.03332295515736 0.5 L 138.03332295515736 3.5 L 145.03332295515736 0 L 138.03332295515736 -3.5 L 138.03332295515736 -0.5 L 111.11041147757868 -0.5 Z"/><text text-anchor="middle" pointer-events="none" font-size="8px" fill="#000000" x="81.51666147757868" y="3" font-family="sans-serif">DESTINATION</text></g><g class="relationship" transform="translate(-41.565725342981494 -221.52771479688184) rotate(381.68936996657175)"><path class="outline" fill="#A5ABB6" stroke="none" d="M 25 0.5 L 43.69737892650777 0.5 L 43.69737892650777 -0.5 L 25 -0.5 Z M 78.14269142650777 0.5 L 96.84007035301553 0.5 L 96.84007035301553 3.5 L 103.84007035301553 0 L 96.84007035301553 -3.5 L 96.84007035301553 -0.5 L 78.14269142650777 -0.5 Z"/><text text-anchor="middle" pointer-events="none" font-size="8px" fill="#000000" x="60.92003517650777" y="3" font-family="sans-serif">ORIGIN</text></g><g class="relationship" transform="translate(-41.565725342981494 -221.52771479688184) rotate(416.26426958956813)"><path class="outline" fill="#A5ABB6" stroke="none" d="M 25 0.5 L 52.32929073066623 0.5 L 52.32929073066623 -0.5 L 25 -0.5 Z M 111.51679073066623 0.5 L 138.84608146133246 0.5 L 138.84608146133246 3.5 L 145.84608146133246 0 L 138.84608146133246 -3.5 L 138.84608146133246 -0.5 L 111.51679073066623 -0.5 Z"/><text text-anchor="middle" pointer-events="none" font-size="8px" fill="#000000" x="81.92304073066623" y="3" font-family="sans-serif">DESTINATION</text></g><g class="relationship" transform="translate(263.626721925583 -250.09152179917257) rotate(517.6705691000768)"><path class="outline" fill="#A5ABB6" stroke="none" d="M 25 0.5 L 79.53202546986351 0.5 L 79.53202546986351 -0.5 L 25 -0.5 Z M 113.97733796986351 0.5 L 168.50936343972703 0.5 L 168.50936343972703 3.5 L 175.50936343972703 0 L 168.50936343972703 -3.5 L 168.50936343972703 -0.5 L 113.97733796986351 -0.5 Z"/><text text-anchor="middle" pointer-events="none" font-size="8px" fill="#000000" x="96.75468171986351" y="3" transform="rotate(180 96.75468171986351 0)" font-family="sans-serif">ORIGIN</text></g><g class="relationship" transform="translate(263.626721925583 -250.09152179917257) rotate(376.1393060984085)"><path class="outline" fill="#A5ABB6" stroke="none" d="M 25 0.5 L 58.31826091674371 0.5 L 58.31826091674371 -0.5 L 25 -0.5 Z M 117.50576091674371 0.5 L 150.82402183348742 0.5 L 150.82402183348742 3.5 L 157.82402183348742 0 L 150.82402183348742 -3.5 L 150.82402183348742 -0.5 L 117.50576091674371 -0.5 Z"/><text text-anchor="middle" pointer-events="none" font-size="8px" fill="#000000" x="87.91201091674371" y="3" font-family="sans-serif">DESTINATION</text></g><g class="relationship" transform="translate(289.35162892260325 -154.51739005123903) rotate(185.2467378722656)"><path class="outline" fill="#A5ABB6" stroke="none" d="M 25 0.5 L 85.32115904270792 0.5 L 85.32115904270792 -0.5 L 25 -0.5 Z M 119.76647154270792 0.5 L 180.08763058541584 0.5 L 180.08763058541584 3.5 L 187.08763058541584 0 L 180.08763058541584 -3.5 L 180.08763058541584 -0.5 L 119.76647154270792 -0.5 Z"/><text text-anchor="middle" pointer-events="none" font-size="8px" fill="#000000" x="102.54381529270792" y="3" transform="rotate(180 102.54381529270792 0)" font-family="sans-serif">ORIGIN</text></g><g class="relationship" transform="translate(289.35162892260325 -154.51739005123903) rotate(343.3759266059486)"><path class="outline" fill="#A5ABB6" stroke="none" d="M 25 0.5 L 45.12238210875114 0.5 L 45.12238210875114 -0.5 L 25 -0.5 Z M 104.30988210875114 0.5 L 124.43226421750228 0.5 L 124.43226421750228 3.5 L 131.43226421750228 0 L 124.43226421750228 -3.5 L 124.43226421750228 -0.5 L 104.30988210875114 -0.5 Z"/><text text-anchor="middle" pointer-events="none" font-size="8px" fill="#000000" x="74.71613210875114" y="3" font-family="sans-serif">DESTINATION</text></g><g class="relationship" transform="translate(-117.87950192629731 -73.3320899503753) rotate(332.8386686797734)"><path class="outline" fill="#A5ABB6" stroke="none" d="M 25 0.5 L 89.44182865858556 0.5 L 89.44182865858556 -0.5 L 25 -0.5 Z M 123.88714115858556 0.5 L 188.32896981717113 0.5 L 188.32896981717113 3.5 L 195.32896981717113 0 L 188.32896981717113 -3.5 L 188.32896981717113 -0.5 L 123.88714115858556 -0.5 Z"/><text text-anchor="middle" pointer-events="none" font-size="8px" fill="#000000" x="106.66448490858556" y="3" font-family="sans-serif">ORIGIN</text></g><g class="relationship" transform="translate(-117.87950192629731 -73.3320899503753) rotate(357.9530727356853)"><path class="outline" fill="#A5ABB6" stroke="none" d="M 25 0.5 L 52.55860026803029 0.5 L 52.55860026803029 -0.5 L 25 -0.5 Z M 111.74610026803029 0.5 L 139.30470053606058 0.5 L 139.30470053606058 3.5 L 146.30470053606058 0 L 139.30470053606058 -3.5 L 139.30470053606058 -0.5 L 111.74610026803029 -0.5 Z"/><text text-anchor="middle" pointer-events="none" font-size="8px" fill="#000000" x="82.15235026803029" y="3" font-family="sans-serif">DESTINATION</text></g><g class="relationship" transform="translate(-29.78390090071504 -26.505811821661634) rotate(306.21308280154676)"><path class="outline" fill="#A5ABB6" stroke="none" d="M 25 0.5 L 70.6266673243752 0.5 L 70.6266673243752 -0.5 L 25 -0.5 Z M 105.0719798243752 0.5 L 150.6986471487504 0.5 L 150.6986471487504 3.5 L 157.6986471487504 0 L 150.6986471487504 -3.5 L 150.6986471487504 -0.5 L 105.0719798243752 -0.5 Z"/><text text-anchor="middle" pointer-events="none" font-size="8px" fill="#000000" x="87.8493235743752" y="3" font-family="sans-serif">ORIGIN</text></g><g class="relationship" transform="translate(-29.78390090071504 -26.505811821661634) rotate(267.2924408619562)"><path class="outline" fill="#A5ABB6" stroke="none" d="M 25 0.5 L 26.82565225531814 0.5 L 26.82565225531814 -0.5 L 25 -0.5 Z M 64.38424600531815 0.5 L 66.20989826063628 0.5 L 66.20989826063628 3.5 L 73.20989826063628 0 L 66.20989826063628 -3.5 L 66.20989826063628 -0.5 L 64.38424600531815 -0.5 Z"/><text text-anchor="middle" pointer-events="none" font-size="8px" fill="#000000" x="45.60494913031814" y="3" transform="rotate(180 45.60494913031814 0)" font-family="sans-serif">DESTI…</text></g><g class="relationship" transform="translate(-112.99868358518174 25.05253504697838) rotate(313.8526735693782)"><path class="outline" fill="#A5ABB6" stroke="none" d="M 25 0.5 L 117.23168147537547 0.5 L 117.23168147537547 -0.5 L 25 -0.5 Z M 151.67699397537547 0.5 L 243.90867545075093 0.5 L 243.90867545075093 3.5 L 250.90867545075093 0 L 243.90867545075093 -3.5 L 243.90867545075093 -0.5 L 151.67699397537547 -0.5 Z"/><text text-anchor="middle" pointer-events="none" font-size="8px" fill="#000000" x="134.45433772537547" y="3" font-family="sans-serif">ORIGIN</text></g><g class="relationship" transform="translate(-112.99868358518174 25.05253504697838) rotate(297.7008986160909)"><path class="outline" fill="#A5ABB6" stroke="none" d="M 25 0.5 L 51.42224189406876 0.5 L 51.42224189406876 -0.5 L 25 -0.5 Z M 110.60974189406876 0.5 L 137.03198378813752 0.5 L 137.03198378813752 3.5 L 144.03198378813752 0 L 137.03198378813752 -3.5 L 137.03198378813752 -0.5 L 110.60974189406876 -0.5 Z"/><text text-anchor="middle" pointer-events="none" font-size="8px" fill="#000000" x="81.01599189406876" y="3" font-family="sans-serif">DESTINATION</text></g><g class="relationship" transform="translate(-25.49464913300707 71.13643682514119) rotate(292.92675414672954)"><path class="outline" fill="#A5ABB6" stroke="none" d="M 25 0.5 L 112.31057109873615 0.5 L 112.31057109873615 -0.5 L 25 -0.5 Z M 146.75588359873615 0.5 L 234.0664546974723 0.5 L 234.0664546974723 3.5 L 241.0664546974723 0 L 234.0664546974723 -3.5 L 234.0664546974723 -0.5 L 146.75588359873615 -0.5 Z"/><text text-anchor="middle" pointer-events="none" font-size="8px" fill="#000000" x="129.53322734873615" y="3" font-family="sans-serif">ORIGIN</text></g><g class="relationship" transform="translate(-25.49464913300707 71.13643682514119) rotate(297.6255302029944)"><path class="outline" fill="#A5ABB6" stroke="none" d="M 25 0.5 L 51.88801782891335 0.5 L 51.88801782891335 -0.5 L 25 -0.5 Z M 111.07551782891335 0.5 L 137.9635356578267 0.5 L 137.9635356578267 3.5 L 144.9635356578267 0 L 137.9635356578267 -3.5 L 137.9635356578267 -0.5 L 111.07551782891335 -0.5 Z"/><text text-anchor="middle" pointer-events="none" font-size="8px" fill="#000000" x="81.48176782891335" y="3" font-family="sans-serif">DESTINATION</text></g><g class="relationship" transform="translate(143.29306289649168 67.73895914159853) rotate(254.91368436302025)"><path class="outline" fill="#A5ABB6" stroke="none" d="M 25 0.5 L 104.41559912435898 0.5 L 104.41559912435898 -0.5 L 25 -0.5 Z M 138.86091162435898 0.5 L 218.27651074871795 0.5 L 218.27651074871795 3.5 L 225.27651074871795 0 L 218.27651074871795 -3.5 L 218.27651074871795 -0.5 L 138.86091162435898 -0.5 Z"/><text text-anchor="middle" pointer-events="none" font-size="8px" fill="#000000" x="121.63825537435898" y="3" transform="rotate(180 121.63825537435898 0)" font-family="sans-serif">ORIGIN</text></g><g class="relationship" transform="translate(143.29306289649168 67.73895914159853) rotate(370.7256814579835)"><path class="outline" fill="#A5ABB6" stroke="none" d="M 25 0.5 L 43.59640703189591 0.5 L 43.59640703189591 -0.5 L 25 -0.5 Z M 102.78390703189591 0.5 L 121.38031406379181 0.5 L 121.38031406379181 3.5 L 128.38031406379181 0 L 121.38031406379181 -3.5 L 121.38031406379181 -0.5 L 102.78390703189591 -0.5 Z"/><text text-anchor="middle" pointer-events="none" font-size="8px" fill="#000000" x="73.19015703189591" y="3" font-family="sans-serif">DESTINATION</text></g><g class="relationship" transform="translate(139.2470814958927 -29.465630837337347) rotate(247.07373538929164)"><path class="outline" fill="#A5ABB6" stroke="none" d="M 25 0.5 L 57.69482954967164 0.5 L 57.69482954967164 -0.5 L 25 -0.5 Z M 92.14014204967164 0.5 L 124.83497159934328 0.5 L 124.83497159934328 3.5 L 131.83497159934328 0 L 124.83497159934328 -3.5 L 124.83497159934328 -0.5 L 92.14014204967164 -0.5 Z"/><text text-anchor="middle" pointer-events="none" font-size="8px" fill="#000000" x="74.91748579967164" y="3" transform="rotate(180 74.91748579967164 0)" font-family="sans-serif">ORIGIN</text></g><g class="relationship" transform="translate(139.2470814958927 -29.465630837337347) rotate(399.097891464017)"><path class="outline" fill="#A5ABB6" stroke="none" d="M 25 0.5 L 66.60520613130365 0.5 L 66.60520613130365 -0.5 L 25 -0.5 Z M 125.79270613130365 0.5 L 167.3979122626073 0.5 L 167.3979122626073 3.5 L 174.3979122626073 0 L 167.3979122626073 -3.5 L 167.3979122626073 -0.5 L 125.79270613130365 -0.5 Z"/><text text-anchor="middle" pointer-events="none" font-size="8px" fill="#000000" x="96.19895613130365" y="3" font-family="sans-serif">DESTINATION</text></g></g><g class="layer nodes"><g class="node" aria-label="graph-node15" transform="translate(78.15261675165866,-173.91172699151645)"><circle class="outline" cx="0" cy="0" r="25" fill="#8DCC93" stroke="#5db665" stroke-width="2px"/><text class="caption" text-anchor="middle" pointer-events="none" x="0" y="5" font-size="10px" fill="#2A2C34" font-family="sans-serif"> LAX</text></g><g class="node" aria-label="graph-node35" transform="translate(-6.771975237503911,183.56623964076073)"><circle class="outline" cx="0" cy="0" r="25" fill="#8DCC93" stroke="#5db665" stroke-width="2px"/><text class="caption" text-anchor="middle" pointer-events="none" x="0" y="5" font-size="10px" fill="#2A2C34" font-family="sans-serif"> LAS</text></g><g class="node" aria-label="graph-node50" transform="translate(53.31589043340081,-79.45075488305484)"><circle class="outline" cx="0" cy="0" r="25" fill="#8DCC93" stroke="#5db665" stroke-width="2px"/><text class="caption" text-anchor="middle" pointer-events="none" x="0" y="5" font-size="10px" fill="#2A2C34" font-family="sans-serif"> ABQ</text></g><g class="node" aria-label="graph-node12" transform="translate(244.07180081897246,188.24419576733223)"><circle class="outline" cx="0" cy="0" r="25" fill="#8DCC93" stroke="#5db665" stroke-width="2px"/><text class="caption" text-anchor="middle" pointer-events="none" x="0" y="5" font-size="10px" fill="#2A2C34" font-family="sans-serif"> IAH</text></g><g class="node" aria-label="graph-node11" transform="translate(135.51184643544224,-518.5287965557685)"><circle class="outline" cx="0" cy="0" r="25" fill="#8DCC93" stroke="#5db665" stroke-width="2px"/><text class="caption" text-anchor="middle" pointer-events="none" x="0" y="5" font-size="10px" fill="#2A2C34" font-family="sans-serif"> EWR</text></g><g class="node" aria-label="graph-node51" transform="translate(293.9937426918301,96.28411374847165)"><circle class="outline" cx="0" cy="0" r="25" fill="#8DCC93" stroke="#5db665" stroke-width="2px"/><text class="caption" text-anchor="middle" pointer-events="none" x="0" y="5" font-size="10px" fill="#2A2C34" font-family="sans-serif"> FAT</text></g><g class="node" aria-label="graph-node23" transform="translate(-34.42316322144143,-124.60607360257646)"><circle class="outline" cx="0" cy="0" r="25" fill="#8DCC93" stroke="#5db665" stroke-width="2px"/><text class="caption" text-anchor="middle" pointer-events="none" x="0" y="5" font-size="10px" fill="#2A2C34" font-family="sans-serif"> SMF</text></g><g class="node" aria-label="graph-node26" transform="translate(-76.4096241003989,-488.3733538584512)"><circle class="outline" cx="0" cy="0" r="25" fill="#8DCC93" stroke="#5db665" stroke-width="2px"/><text class="caption" text-anchor="middle" pointer-events="none" x="0" y="5" font-size="10px" fill="#2A2C34" font-family="sans-serif"> BOS</text></g><g class="node" aria-label="graph-node52" transform="translate(439.24540854626684,-199.27125154214298)"><circle class="outline" cx="0" cy="0" r="25" fill="#8DCC93" stroke="#5db665" stroke-width="2px"/><text class="caption" text-anchor="middle" pointer-events="none" x="0" y="5" font-size="10px" fill="#2A2C34" font-family="sans-serif"> TUS</text></g><g class="node" aria-label="graph-node669" transform="translate(56.523977695072595,20.79486955585893)"><circle class="outline" cx="0" cy="0" r="25" fill="#ECB5C9" stroke="#da7298" stroke-width="2px"/><text class="caption" text-anchor="middle" pointer-events="none" x="0" y="5" font-size="10px" fill="#2A2C34" font-family="sans-serif"> 40</text></g><g class="node" aria-label="graph-node977" transform="translate(-122.75458047222598,-168.5744118626701)"><circle class="outline" cx="0" cy="0" r="25" fill="#ECB5C9" stroke="#da7298" stroke-width="2px"/><text class="caption" text-anchor="middle" pointer-events="none" x="0" y="5" font-size="10px" fill="#2A2C34" font-family="sans-serif"> 86</text></g><g class="node" aria-label="graph-node981" transform="translate(142.6336078987896,-264.05138966487016)"><circle class="outline" cx="0" cy="0" r="25" fill="#ECB5C9" stroke="#da7298" stroke-width="2px"/><text class="caption" text-anchor="middle" pointer-events="none" x="0" y="5" font-size="10px" fill="#2A2C34" font-family="sans-serif"> 88</text></g><g class="node" aria-label="graph-node113" transform="translate(227.52699922671945,15.04210942994731)"><circle class="outline" cx="0" cy="0" r="25" fill="#ECB5C9" stroke="#da7298" stroke-width="2px"/><text class="caption" text-anchor="middle" pointer-events="none" x="0" y="5" font-size="10px" fill="#2A2C34" font-family="sans-serif"> 145</text></g><g class="node selected" aria-label="graph-node933" transform="translate(193.6999661250738,-179.4308938584696)"><circle class="outline" cx="0" cy="0" r="25" fill="#ECB5C9" stroke="#da7298" stroke-width="2px"/><text class="caption" text-anchor="middle" pointer-events="none" x="0" y="5" font-size="10px" fill="#2A2C34" font-family="sans-serif"> 84</text></g><g class="node" aria-label="graph-node553" transform="translate(135.46529038121162,-363.0645403611028)"><circle class="outline" cx="0" cy="0" r="25" fill="#ECB5C9" stroke="#da7298" stroke-width="2px"/><text class="caption" text-anchor="middle" pointer-events="none" x="0" y="5" font-size="10px" fill="#2A2C34" font-family="sans-serif"> 267</text></g><g class="node" aria-label="graph-node965" transform="translate(220.1361265331907,-83.97642684832141)"><circle class="outline" cx="0" cy="0" r="25" fill="#ECB5C9" stroke="#da7298" stroke-width="2px"/><text class="caption" text-anchor="middle" pointer-events="none" x="0" y="5" font-size="10px" fill="#2A2C34" font-family="sans-serif"> 39</text></g><g class="node" aria-label="graph-node1017" transform="translate(-46.056647710446924,-320.44130023340927)"><circle class="outline" cx="0" cy="0" r="25" fill="#ECB5C9" stroke="#da7298" stroke-width="2px"/><text class="caption" text-anchor="middle" pointer-events="none" x="0" y="5" font-size="10px" fill="#2A2C34" font-family="sans-serif"> 62</text></g><g class="node" aria-label="graph-node657" transform="translate(36.803730326098325,-374.1692573712222)"><circle class="outline" cx="0" cy="0" r="25" fill="#ECB5C9" stroke="#da7298" stroke-width="2px"/><text class="caption" text-anchor="middle" pointer-events="none" x="0" y="5" font-size="10px" fill="#2A2C34" font-family="sans-serif"> 269</text></g><g class="node" aria-label="graph-node985" transform="translate(42.264332976637405,-275.28446991912995)"><circle class="outline" cx="0" cy="0" r="25" fill="#ECB5C9" stroke="#da7298" stroke-width="2px"/><text class="caption" text-anchor="middle" pointer-events="none" x="0" y="5" font-size="10px" fill="#2A2C34" font-family="sans-serif"> 83</text></g><g class="node" aria-label="graph-node961" transform="translate(313.09682971810315,-58.570179423190936)"><circle class="outline" cx="0" cy="0" r="25" fill="#ECB5C9" stroke="#da7298" stroke-width="2px"/><text class="caption" text-anchor="middle" pointer-events="none" x="0" y="5" font-size="10px" fill="#2A2C34" font-family="sans-serif"> 37</text></g><g class="node" aria-label="graph-node1009" transform="translate(-128.6896886968179,-266.1163314992146)"><circle class="outline" cx="0" cy="0" r="25" fill="#ECB5C9" stroke="#da7298" stroke-width="2px"/><text class="caption" text-anchor="middle" pointer-events="none" x="0" y="5" font-size="10px" fill="#2A2C34" font-family="sans-serif"> 65</text></g><g class="node" aria-label="graph-node929" transform="translate(-41.565725342981494,-221.52771479688184)"><circle class="outline" cx="0" cy="0" r="25" fill="#ECB5C9" stroke="#da7298" stroke-width="2px"/><text class="caption" text-anchor="middle" pointer-events="none" x="0" y="5" font-size="10px" fill="#2A2C34" font-family="sans-serif"> 90</text></g><g class="node" aria-label="graph-node993" transform="translate(263.626721925583,-250.09152179917257)"><circle class="outline" cx="0" cy="0" r="25" fill="#ECB5C9" stroke="#da7298" stroke-width="2px"/><text class="caption" text-anchor="middle" pointer-events="none" x="0" y="5" font-size="10px" fill="#2A2C34" font-family="sans-serif"> 64</text></g><g class="node" aria-label="graph-node989" transform="translate(289.35162892260325,-154.51739005123903)"><circle class="outline" cx="0" cy="0" r="25" fill="#ECB5C9" stroke="#da7298" stroke-width="2px"/><text class="caption" text-anchor="middle" pointer-events="none" x="0" y="5" font-size="10px" fill="#2A2C34" font-family="sans-serif"> 63</text></g><g class="node" aria-label="graph-node941" transform="translate(-117.87950192629731,-73.3320899503753)"><circle class="outline" cx="0" cy="0" r="25" fill="#ECB5C9" stroke="#da7298" stroke-width="2px"/><text class="caption" text-anchor="middle" pointer-events="none" x="0" y="5" font-size="10px" fill="#2A2C34" font-family="sans-serif"> 86</text></g><g class="node" aria-label="graph-node1013" transform="translate(-29.78390090071504,-26.505811821661634)"><circle class="outline" cx="0" cy="0" r="25" fill="#ECB5C9" stroke="#da7298" stroke-width="2px"/><text class="caption" text-anchor="middle" pointer-events="none" x="0" y="5" font-size="10px" fill="#2A2C34" font-family="sans-serif"> 67</text></g><g class="node" aria-label="graph-node1005" transform="translate(-112.99868358518174,25.05253504697838)"><circle class="outline" cx="0" cy="0" r="25" fill="#ECB5C9" stroke="#da7298" stroke-width="2px"/><text class="caption" text-anchor="middle" pointer-events="none" x="0" y="5" font-size="10px" fill="#2A2C34" font-family="sans-serif"> 61</text></g><g class="node" aria-label="graph-node937" transform="translate(-25.49464913300707,71.13643682514119)"><circle class="outline" cx="0" cy="0" r="25" fill="#ECB5C9" stroke="#da7298" stroke-width="2px"/><text class="caption" text-anchor="middle" pointer-events="none" x="0" y="5" font-size="10px" fill="#2A2C34" font-family="sans-serif"> 89</text></g><g class="node" aria-label="graph-node969" transform="translate(143.29306289649168,67.73895914159853)"><circle class="outline" cx="0" cy="0" r="25" fill="#ECB5C9" stroke="#da7298" stroke-width="2px"/><text class="caption" text-anchor="middle" pointer-events="none" x="0" y="5" font-size="10px" fill="#2A2C34" font-family="sans-serif"> 38</text></g><g class="node" aria-label="graph-node973" transform="translate(139.2470814958927,-29.465630837337347)"><circle class="outline" cx="0" cy="0" r="25" fill="#ECB5C9" stroke="#da7298" stroke-width="2px"/><text class="caption" text-anchor="middle" pointer-events="none" x="0" y="5" font-size="10px" fill="#2A2C34" font-family="sans-serif"> 42</text></g></g></svg>